<svg width="25" height="18" viewBox="0 0 25 18" fill="none" xmlns="http://www.w3.org/2000/svg">
<path d="M9.03964 6.48736C7.59398 6.48736 6.41781 7.74882 6.41781 9.29936C6.41781 10.8499 7.59398 12.1114 9.03964 12.1114C10.4853 12.1114 11.6616 10.8499 11.6616 9.29936C11.6616 7.74882 10.4853 6.48736 9.03964 6.48736ZM9.03964 10.6853C8.4017 10.6853 7.88266 10.0636 7.88266 9.29936C7.88266 8.53517 8.4017 7.91344 9.03964 7.91344C9.67763 7.91344 10.1967 8.53517 10.1967 9.29936C10.1967 10.0636 9.67763 10.6853 9.03964 10.6853Z" fill="#DADADA"/>
<path d="M15.9609 6.48736C14.5152 6.48736 13.339 7.74882 13.339 9.29936C13.339 10.8499 14.5152 12.1114 15.9609 12.1114C17.4066 12.1114 18.5827 10.8499 18.5827 9.29936C18.5827 7.74882 17.4066 6.48736 15.9609 6.48736ZM15.9609 10.6853C15.3229 10.6853 14.8038 10.0636 14.8038 9.29936C14.8038 8.53517 15.3229 7.91344 15.9609 7.91344C16.5988 7.91344 17.1179 8.53517 17.1179 9.29936C17.1179 10.0636 16.5988 10.6853 15.9609 10.6853Z" fill="#DADADA"/>
<path d="M24.9989 14.0662C24.9816 13.7648 24.5436 6.63358 21.762 2.36773C21.7051 2.2805 21.6294 2.2063 21.5402 2.15039C18.1007 -0.00579951 15.7579 0.000380289 15.6599 0C15.3758 0.00366029 15.1312 0.164523 15.0129 0.396975L13.8313 2.60142C13.3912 2.57337 12.9468 2.55883 12.5 2.55883C12.0533 2.55883 11.6089 2.57337 11.1688 2.60142L9.98849 0.399541C9.87077 0.165759 9.62531 0.0037078 9.34011 4.75101e-05C9.24152 -0.000522924 6.89899 -0.00556182 3.45993 2.15044C3.37072 2.20639 3.29499 2.28055 3.2381 2.36778C0.456463 6.63358 0.0184253 13.7648 0.00114017 14.0662C-0.00969968 14.2552 0.0570972 14.4407 0.186834 14.5817C0.315837 14.7219 3.38024 18 7.61593 18C7.63488 18 7.65436 17.9999 7.67336 17.9998C7.89596 17.9982 8.10568 17.8982 8.24343 17.7281L10.1972 15.3143C10.9476 15.3977 11.7183 15.4411 12.5 15.4411C13.2818 15.4411 14.0525 15.3977 14.8028 15.3143L16.7566 17.7281C16.8944 17.8982 17.1041 17.9982 17.3267 17.9998C17.346 18 17.3649 18 17.3841 18C21.6194 18 24.6843 14.7219 24.8132 14.5817C24.9429 14.4407 25.0097 14.2552 24.9989 14.0662ZM17.682 16.5672L16.4605 15.058C18.3199 14.6856 19.9888 14.052 21.2914 13.2011C21.6274 12.9817 21.717 12.5388 21.4916 12.2118C21.2663 11.8847 20.8111 11.7973 20.4754 12.0169C18.5311 13.2868 15.6242 14.015 12.5 14.015C9.37599 14.015 6.46906 13.2868 4.52468 12.017C4.18869 11.7976 3.73376 11.8849 3.50842 12.2119C3.28307 12.539 3.37272 12.9819 3.70866 13.2013C5.01139 14.052 6.68024 14.6857 8.53957 15.0581L7.31813 16.5672C4.45031 16.4376 2.16808 14.4852 1.48659 13.8373C1.60036 12.4556 2.19069 6.75732 4.39006 3.26431C6.54977 1.9371 8.17961 1.56798 8.90754 1.4654L9.60246 2.76176C7.96862 2.99402 6.43791 3.42085 5.13405 4.01847C4.76808 4.18618 4.6111 4.61101 4.78337 4.96734C4.95568 5.32358 5.39206 5.47636 5.75798 5.30874C7.62057 4.45504 10.015 3.98491 12.5 3.98491C14.9852 3.98491 17.3797 4.45514 19.2422 5.30894C19.343 5.35514 19.4491 5.37705 19.5537 5.37705C19.8285 5.37705 20.092 5.22565 20.2168 4.96758C20.3891 4.61134 20.2321 4.18646 19.8661 4.01871C18.5622 3.42104 17.0315 2.99411 15.3975 2.76185L16.0924 1.46549C16.8203 1.56808 18.4502 1.93719 20.61 3.2644C22.8069 6.75375 23.3992 12.458 23.5134 13.8385C22.8337 14.4878 20.5616 16.4387 17.682 16.5672Z" fill="#DADADA"/>
</svg>
