<svg width="20" height="20" viewBox="0 0 20 20" fill="none" xmlns="http://www.w3.org/2000/svg">
<path d="M19.6536 12.1925L17.7658 10.755C17.7906 10.5333 17.8103 10.2742 17.8103 10C17.8103 9.72582 17.7898 9.46668 17.7658 9.245L19.6553 7.80668C20.0062 7.53668 20.1028 7.0575 19.8786 6.65836L17.9155 3.35086C17.7007 2.97004 17.219 2.79586 16.78 2.95336L14.5525 3.82418C14.1263 3.52418 13.6788 3.27086 13.2158 3.06836L12.8769 0.767539C12.8213 0.33 12.4311 0 11.9698 0H8.03341C7.57215 0 7.18193 0.33 7.12718 0.75918L6.78746 3.06836C6.33903 3.26586 5.89835 3.51504 5.45249 3.82504L3.219 2.95172C2.792 2.78922 2.3059 2.9609 2.09198 3.34254L0.126321 6.65504C-0.105573 7.03672 -0.0105854 7.53172 0.348828 7.80836L2.23659 9.24504C2.20662 9.52672 2.1921 9.77086 2.1921 10C2.1921 10.2292 2.20667 10.4734 2.2349 10.755L0.345418 12.1942C-0.00460851 12.4642 -0.100479 12.9433 0.122871 13.3425L2.08596 16.65C2.29905 17.03 2.77996 17.2033 3.22153 17.0475L5.44904 16.1767C5.87521 16.4759 6.32363 16.7292 6.78658 16.9325L7.12545 19.2325C7.18109 19.67 7.57131 20 8.03253 20H11.9689C12.4302 20 12.8204 19.67 12.8752 19.2408L13.2149 16.9325C13.6633 16.735 14.104 16.4858 14.5499 16.1758L16.7834 17.0491C17.2087 17.21 17.6964 17.04 17.9104 16.6583L19.8837 13.3341C20.102 12.9442 20.0061 12.465 19.6536 12.1925ZM19.1358 12.9258L17.0974 16.2741L14.6475 15.3158C14.5088 15.2616 14.3514 15.2825 14.2316 15.3691C13.701 15.7558 13.1884 16.0466 12.663 16.2558C12.5226 16.3116 12.4225 16.4358 12.4011 16.5825L11.969 19.1667L7.97521 19.1225L7.60123 16.5833C7.57897 16.4366 7.47973 16.3125 7.33937 16.2566C6.79255 16.0383 6.26627 15.7408 5.7742 15.3725C5.69803 15.315 5.60561 15.2858 5.51319 15.2858C5.45927 15.2858 5.40536 15.295 5.35317 15.3158L2.83299 16.2416L0.869897 12.9341C0.851926 12.9016 0.855336 12.8641 0.875874 12.8483L2.95277 11.2675C3.07086 11.1775 3.13248 11.0325 3.11366 10.8875C3.06829 10.5383 3.04776 10.2558 3.04776 9.99996C3.04776 9.74414 3.06914 9.46246 3.11366 9.11246C3.13248 8.96664 3.07086 8.82246 2.95277 8.73246L0.865685 7.075L2.90407 3.72668L5.35406 4.685C5.49353 4.74 5.65013 4.71918 5.77079 4.63168C6.30048 4.24418 6.81393 3.95418 7.33937 3.745C7.47973 3.68832 7.57897 3.56418 7.60039 3.41832L8.03341 0.83332L12.028 0.87832L12.4011 3.41832C12.4234 3.565 12.5226 3.68914 12.663 3.745C13.209 3.9625 13.7352 4.26 14.2282 4.62918C14.3488 4.71918 14.5071 4.74086 14.6483 4.685L17.1685 3.75918L19.1316 7.06668C19.1496 7.09918 19.1462 7.13586 19.1256 7.15168L17.0487 8.7325C16.9306 8.8225 16.869 8.96668 16.8878 9.1125C16.9204 9.36582 16.9538 9.67 16.9538 10C16.9538 10.3308 16.9204 10.6342 16.8878 10.8875C16.869 11.0325 16.9306 11.1775 17.0487 11.2675L19.1231 12.8475C19.1453 12.865 19.1495 12.9025 19.1358 12.9258Z" fill="#DADADA"/>
<path d="M10.0007 5.83337C7.64137 5.83337 5.72192 7.70255 5.72192 10.0001C5.72192 12.2976 7.64137 14.1667 10.0007 14.1667C12.36 14.1667 14.2794 12.2976 14.2794 10.0001C14.2794 7.70255 12.36 5.83337 10.0007 5.83337ZM10.0007 13.3334C8.1129 13.3334 6.5777 11.8384 6.5777 10.0001C6.5777 8.16173 8.1129 6.66673 10.0007 6.66673C11.8884 6.66673 13.4236 8.16173 13.4236 10.0001C13.4236 11.8384 11.8884 13.3334 10.0007 13.3334Z" fill="#DADADA"/>
</svg>
