<svg width="20" height="20" viewBox="0 0 20 20" fill="none" xmlns="http://www.w3.org/2000/svg">
<path d="M19.1997 13.5134C17.9584 14.0782 16.6099 14.3687 15.2461 14.3653C9.93896 14.3594 5.63814 10.0593 5.6323 4.75307C5.62861 3.38954 5.91897 2.04127 6.48362 0.800133L6.84828 0L6.04669 0.360623C2.36691 2.02233 0.00132661 5.6845 5.66805e-07 9.72149C-0.00186418 15.3963 4.59769 19.9981 10.2735 20C14.3126 19.9974 17.9762 17.6312 19.6393 13.9509L20 13.1488L19.1997 13.5134ZM14.9981 18.0968C10.3744 20.7065 4.51017 19.0744 1.90006 14.4514C-0.710055 9.82847 0.922348 3.96532 5.5461 1.35565C5.1618 2.44705 4.96675 3.59604 4.96927 4.75307C4.97586 10.4251 9.5731 15.0216 15.2461 15.0282C16.4034 15.0307 17.5525 14.8357 18.6441 14.4514C17.7834 15.9758 16.5228 17.2363 14.9981 18.0968Z" fill="#565656"/>
</svg>
