<svg width="20" height="20" viewBox="0 0 20 20" fill="none" xmlns="http://www.w3.org/2000/svg">
<path d="M9.99997 3.7791C6.56977 3.7791 3.77907 6.5698 3.77907 10C3.77907 13.4302 6.56977 16.2209 9.99997 16.2209C13.4302 16.2209 16.2209 13.4302 16.2209 10C16.2209 6.5698 13.4302 3.7791 9.99997 3.7791ZM9.99997 15.4396C7.00051 15.4396 4.56032 12.9995 4.56032 10C4.56032 7.00055 7.00051 4.56035 9.99997 4.56035C12.9994 4.56035 15.4396 7.00055 15.4396 10C15.4396 12.9995 12.9994 15.4396 9.99997 15.4396Z" fill="#DADADA"/>
<path d="M10 2.62863C10.1036 2.62863 10.203 2.58748 10.2762 2.51422C10.3495 2.44096 10.3906 2.34161 10.3906 2.23801V0.390625C10.3906 0.287025 10.3495 0.187668 10.2762 0.114411C10.203 0.041155 10.1036 0 10 0C9.8964 0 9.79704 0.041155 9.72379 0.114411C9.65053 0.187668 9.60938 0.287025 9.60938 0.390625V2.23801C9.60938 2.34161 9.65053 2.44096 9.72379 2.51422C9.79704 2.58748 9.8964 2.62863 10 2.62863Z" fill="#DADADA"/>
<path d="M10 17.3713C9.8964 17.3713 9.79704 17.4125 9.72379 17.4858C9.65053 17.559 9.60938 17.6584 9.60938 17.762V19.6094C9.60938 19.713 9.65053 19.8123 9.72379 19.8856C9.79704 19.9588 9.8964 20 10 20C10.1036 20 10.203 19.9588 10.2762 19.8856C10.3495 19.8123 10.3906 19.713 10.3906 19.6094V17.762C10.3906 17.6584 10.3495 17.559 10.2762 17.4858C10.203 17.4125 10.1036 17.3713 10 17.3713Z" fill="#DADADA"/>
<path d="M5.78071 3.47325C5.83251 3.56297 5.91783 3.62845 6.01791 3.65526C6.11798 3.68208 6.2246 3.66804 6.31433 3.61624C6.40405 3.56444 6.46952 3.47912 6.49634 3.37905C6.52315 3.27897 6.50912 3.17235 6.45732 3.08263L5.5336 1.48274C5.50814 1.43796 5.47407 1.39865 5.43336 1.36709C5.39264 1.33553 5.34609 1.31233 5.29637 1.29883C5.24666 1.28533 5.19476 1.2818 5.14368 1.28844C5.09259 1.29508 5.04332 1.31176 4.99871 1.33752C4.95409 1.36328 4.91502 1.39761 4.88372 1.43853C4.85243 1.47945 4.82954 1.52616 4.81637 1.57597C4.80321 1.62577 4.80002 1.67769 4.807 1.72873C4.81398 1.77977 4.83098 1.82893 4.85704 1.87337L5.78071 3.47325Z" fill="#DADADA"/>
<path d="M14.2193 16.5268C14.1675 16.4371 14.0822 16.3716 13.9821 16.3448C13.882 16.318 13.7754 16.332 13.6857 16.3838C13.5959 16.4356 13.5305 16.5209 13.5036 16.621C13.4768 16.7211 13.4909 16.8277 13.5427 16.9174L14.4664 18.5173C14.4918 18.5621 14.5259 18.6014 14.5666 18.6329C14.6073 18.6645 14.6539 18.6877 14.7036 18.7012C14.7533 18.7147 14.8052 18.7182 14.8563 18.7116C14.9074 18.7049 14.9567 18.6883 15.0013 18.6625C15.0459 18.6368 15.085 18.6024 15.1163 18.5615C15.1476 18.5206 15.1704 18.4739 15.1836 18.4241C15.1968 18.3743 15.2 18.3223 15.193 18.2713C15.186 18.2203 15.169 18.1711 15.1429 18.1267L14.2193 16.5268Z" fill="#DADADA"/>
<path d="M3.47322 5.78072L1.87334 4.85704C1.8289 4.83099 1.77974 4.81398 1.7287 4.80701C1.67766 4.80003 1.62574 4.80321 1.57594 4.81638C1.52613 4.82955 1.47942 4.85244 1.4385 4.88373C1.39758 4.91502 1.36325 4.9541 1.33749 4.99871C1.31173 5.04333 1.29505 5.0926 1.28841 5.14368C1.28177 5.19477 1.2853 5.24666 1.2988 5.29638C1.3123 5.34609 1.3355 5.39265 1.36706 5.43336C1.39862 5.47408 1.43793 5.50815 1.48271 5.53361L3.08259 6.45732C3.17232 6.50912 3.27894 6.52316 3.37901 6.49634C3.47909 6.46953 3.56441 6.40406 3.61621 6.31433C3.66801 6.22461 3.68204 6.11798 3.65523 6.01791C3.62841 5.91784 3.56294 5.83252 3.47322 5.78072Z" fill="#DADADA"/>
<path d="M18.5173 14.4664L16.9174 13.5427C16.8277 13.4909 16.7211 13.4768 16.621 13.5037C16.5209 13.5305 16.4356 13.5959 16.3838 13.6857C16.332 13.7754 16.318 13.882 16.3448 13.9821C16.3716 14.0822 16.4371 14.1675 16.5268 14.2193L18.1267 15.1429C18.1711 15.169 18.2203 15.186 18.2713 15.193C18.3224 15.2 18.3743 15.1968 18.4241 15.1836C18.4739 15.1704 18.5206 15.1476 18.5615 15.1163C18.6024 15.085 18.6368 15.0459 18.6625 15.0013C18.6883 14.9567 18.705 14.9074 18.7116 14.8563C18.7182 14.8052 18.7147 14.7533 18.7012 14.7036C18.6877 14.6539 18.6645 14.6073 18.6329 14.5666C18.6014 14.5259 18.5621 14.4918 18.5173 14.4664Z" fill="#DADADA"/>
<path d="M2.62863 10C2.62863 9.8964 2.58748 9.79704 2.51422 9.72379C2.44096 9.65053 2.34161 9.60938 2.23801 9.60938H0.390625C0.287025 9.60938 0.187668 9.65053 0.114411 9.72379C0.041155 9.79704 0 9.8964 0 10C0 10.1036 0.041155 10.203 0.114411 10.2762C0.187668 10.3495 0.287025 10.3906 0.390625 10.3906H2.23801C2.34161 10.3906 2.44096 10.3495 2.51422 10.2762C2.58748 10.203 2.62863 10.1036 2.62863 10Z" fill="#DADADA"/>
<path d="M19.6094 9.60938H17.762C17.6584 9.60938 17.559 9.65053 17.4858 9.72379C17.4125 9.79704 17.3714 9.8964 17.3714 10C17.3714 10.1036 17.4125 10.203 17.4858 10.2762C17.559 10.3495 17.6584 10.3906 17.762 10.3906H19.6094C19.713 10.3906 19.8123 10.3495 19.8856 10.2762C19.9589 10.203 20 10.1036 20 10C20 9.8964 19.9589 9.79704 19.8856 9.72379C19.8123 9.65053 19.713 9.60938 19.6094 9.60938Z" fill="#DADADA"/>
<path d="M3.08259 13.5427L1.48271 14.4664C1.43793 14.4918 1.39862 14.5259 1.36706 14.5666C1.3355 14.6073 1.3123 14.6539 1.2988 14.7036C1.2853 14.7533 1.28177 14.8052 1.28841 14.8563C1.29505 14.9074 1.31173 14.9567 1.33749 15.0013C1.36325 15.0459 1.39758 15.085 1.4385 15.1163C1.47942 15.1476 1.52613 15.1704 1.57594 15.1836C1.62574 15.1968 1.67766 15.2 1.7287 15.193C1.77974 15.186 1.8289 15.169 1.87334 15.1429L3.47322 14.2193C3.56294 14.1675 3.62841 14.0822 3.65523 13.9821C3.68204 13.882 3.66801 13.7754 3.61621 13.6857C3.56441 13.5959 3.47909 13.5305 3.37901 13.5037C3.27894 13.4768 3.17232 13.4909 3.08259 13.5427Z" fill="#DADADA"/>
<path d="M16.7226 6.5097C16.7911 6.5097 16.8583 6.49163 16.9176 6.45731L18.5175 5.53361C18.5622 5.50814 18.6015 5.47407 18.6331 5.43336C18.6647 5.39265 18.6879 5.34609 18.7014 5.29638C18.7149 5.24666 18.7184 5.19477 18.7118 5.14368C18.7051 5.09259 18.6884 5.04333 18.6627 4.99871C18.6369 4.9541 18.6026 4.91502 18.5617 4.88373C18.5207 4.85244 18.474 4.82955 18.4242 4.81638C18.3744 4.80321 18.3225 4.80003 18.2715 4.80701C18.2204 4.81398 18.1713 4.83099 18.1268 4.85704L16.5269 5.78071C16.4524 5.82371 16.3942 5.89011 16.3612 5.96961C16.3283 6.04911 16.3226 6.13725 16.3449 6.22035C16.3672 6.30346 16.4163 6.37687 16.4846 6.42919C16.5529 6.48151 16.6366 6.50981 16.7226 6.5097Z" fill="#DADADA"/>
<path d="M6.3143 16.3838C6.22458 16.332 6.11796 16.318 6.0179 16.3448C5.91783 16.3716 5.83251 16.437 5.78071 16.5268L4.85704 18.1266C4.83098 18.1711 4.81398 18.2202 4.807 18.2713C4.80002 18.3223 4.80321 18.3742 4.81637 18.424C4.82954 18.4739 4.85243 18.5206 4.88372 18.5615C4.91502 18.6024 4.95409 18.6367 4.99871 18.6625C5.04332 18.6883 5.09259 18.7049 5.14367 18.7116C5.19476 18.7182 5.24665 18.7147 5.29637 18.7012C5.34609 18.6877 5.39264 18.6645 5.43335 18.6329C5.47407 18.6014 5.50814 18.5621 5.5336 18.5173L6.45731 16.9174C6.5091 16.8277 6.52313 16.721 6.49631 16.621C6.4695 16.5209 6.40402 16.4356 6.3143 16.3838Z" fill="#DADADA"/>
<path d="M13.6857 3.61622C13.7754 3.66801 13.882 3.68205 13.9821 3.65524C14.0822 3.62843 14.1675 3.56296 14.2193 3.47325L15.143 1.87337C15.169 1.82892 15.186 1.77977 15.193 1.72873C15.2 1.67769 15.1968 1.62577 15.1836 1.57597C15.1705 1.52616 15.1476 1.47945 15.1163 1.43853C15.085 1.39761 15.0459 1.36328 15.0013 1.33752C14.9567 1.31176 14.9074 1.29508 14.8563 1.28844C14.8053 1.2818 14.7534 1.28533 14.7036 1.29883C14.6539 1.31233 14.6074 1.33553 14.5667 1.36709C14.5259 1.39865 14.4919 1.43796 14.4664 1.48274L13.5427 3.08262C13.4909 3.17235 13.4769 3.27897 13.5037 3.37904C13.5305 3.47911 13.596 3.56442 13.6857 3.61622Z" fill="#DADADA"/>
</svg>
