<svg width="36" height="36" viewBox="0 0 36 36" fill="none" xmlns="http://www.w3.org/2000/svg">
<path d="M36 35.2727L35.2764 36L14.6262 15.8293L15.8248 14.6247L36 35.2727Z" fill="#B079F7"/>
<path d="M13.1247 11.8613L11.5951 10.2959L10.297 11.6006L11.8625 13.1298L13.1247 11.8613Z" fill="#B079F7"/>
<path d="M7.55099 6.15696L6.1576 7.55739L0 1.54278L1.53503 0L7.55099 6.15696Z" fill="#B079F7"/>
<path d="M26.0367 30.5205C23.2873 32.2316 20.0104 32.8854 16.8133 32.3542C13.5185 31.8067 10.5467 30.0403 8.48204 27.4023C6.41739 24.7643 5.40924 21.4455 5.6558 18.0984C5.90236 14.7512 7.38578 11.6178 9.81445 9.31411C12.2431 7.01045 15.4413 5.70319 18.7804 5.64932C22.1194 5.59545 25.3577 6.79887 27.8587 9.023C30.3597 11.2471 31.9424 14.3311 32.2957 17.6686C32.6112 20.6483 31.9263 23.6377 30.3673 26.1681L31.8157 27.6238C33.7863 24.6332 34.6649 21.0384 34.2856 17.4558C33.8794 13.619 32.0599 10.0736 29.1848 7.51676C26.3096 4.95988 22.5868 3.57642 18.7483 3.63835C14.9097 3.70028 11.233 5.20312 8.44095 7.85142C5.64894 10.4997 3.94358 14.1019 3.66014 17.9499C3.37669 21.7978 4.53566 25.6131 6.90921 28.6458C9.28275 31.6785 12.6992 33.7091 16.4868 34.3385C20.2745 34.9678 24.1594 34.1504 27.3779 32.047L27.0475 31.5365L26.0367 30.5205Z" fill="#B079F7"/>
<path d="M22.0888 25.1392C20.802 25.8041 19.3307 26.0397 17.8913 25.8006C16.2245 25.5236 14.7212 24.63 13.6767 23.2955C12.6322 21.961 12.1222 20.2821 12.2469 18.5888C12.3717 16.8955 13.1221 15.3104 14.3507 14.145C15.5793 12.9796 17.1973 12.3183 18.8864 12.2911C20.5756 12.2638 22.2138 12.8726 23.479 13.9977C24.7442 15.1229 25.5449 16.683 25.7236 18.3714C25.8617 19.6757 25.6209 20.9838 25.0425 22.1418L25.7913 22.8944C26.5682 21.4922 26.9009 19.8755 26.7303 18.2637C26.5248 16.3228 25.6043 14.5292 24.1498 13.2358C22.6953 11.9423 20.812 11.2424 18.8702 11.2737C16.9283 11.3051 15.0683 12.0653 13.6559 13.4051C12.2435 14.7448 11.3808 16.5671 11.2374 18.5137C11.094 20.4603 11.6803 22.3904 12.881 23.9246C14.0818 25.4587 15.8101 26.486 17.7262 26.8044C19.4878 27.0971 21.2911 26.7712 22.8356 25.8898L22.0888 25.1392Z" fill="#B079F7"/>
</svg>
