<svg width="25" height="18" viewBox="0 0 25 18" fill="none" xmlns="http://www.w3.org/2000/svg">
<path d="M22.6562 0H2.34377C1.05133 0 0 1.00928 0 2.25001V15.75C0 16.9907 1.05133 18 2.34377 18H22.6562C23.9487 18 25 16.9907 25 15.75V2.25001C25 1.00928 23.9487 0 22.6562 0ZM22.6562 1.49999C22.7624 1.49999 22.8634 1.52113 22.9557 1.55806L12.5 10.2576L2.04427 1.55806C2.13659 1.52118 2.23757 1.49999 2.34371 1.49999H22.6562ZM22.6562 16.5H2.34377C1.91271 16.5 1.56249 16.1638 1.56249 15.7499V3.14281L11.9881 11.8169C12.1353 11.9392 12.3177 12 12.5 12C12.6823 12 12.8647 11.9392 13.0119 11.8169L23.4375 3.14281V15.75C23.4375 16.1638 23.0873 16.5 22.6562 16.5Z" fill="#DADADA"/>
</svg>
