<svg width="25" height="22" viewBox="0 0 25 22" fill="none" xmlns="http://www.w3.org/2000/svg">
<path d="M24.5105 0.401824C24.1083 0.0281521 23.5366 -0.0963721 23.0185 0.0767733L1.03668 7.42449C0.437609 7.62472 0.0313588 8.16698 0.00172009 8.80584C-0.0278698 9.44475 0.326378 10.0233 0.90421 10.2797L6.34049 12.6916C6.367 12.8164 7.9276 20.1559 7.98068 20.4054C8.04879 20.7258 8.20919 21.0113 8.54899 21.0991C8.89269 21.1878 9.13551 20.9974 9.39196 20.8027C9.53468 20.6944 13.4261 17.7396 13.4261 17.7396L18.1424 21.653C18.4171 21.8811 18.7528 22 19.0952 22C19.2582 22 19.4227 21.973 19.5828 21.918C20.0792 21.7473 20.4471 21.3365 20.5671 20.8191L24.96 1.88047C25.0848 1.34202 24.9127 0.775495 24.5105 0.401824ZM9.74337 14.0736C9.74069 14.0801 9.73805 14.0873 9.73556 14.0961L8.82618 17.3177L7.81134 12.545L14.7897 8.61343L9.91075 13.7864C9.8339 13.8679 9.77736 13.9664 9.74337 14.0736ZM10.032 18.4567L10.445 16.9934L10.8401 15.5937L12.2557 16.7684L10.032 18.4567ZM23.5307 1.53952L19.1379 20.4782C19.1357 20.4876 19.1327 20.5006 19.1112 20.5079C19.09 20.5153 19.0796 20.5069 19.0723 20.5008L13.9116 16.2185C13.9114 16.2184 13.9113 16.2183 13.9112 16.2182L11.5201 14.2341L19.2019 6.08938C19.4528 5.82335 19.4743 5.41136 19.2525 5.11998C19.0305 4.82854 18.632 4.74531 18.3148 4.92415L6.9402 11.3325L1.49278 8.91566C1.47618 8.90833 1.46705 8.90422 1.46837 8.87575C1.46969 8.84738 1.47916 8.84416 1.49635 8.83842L23.4782 1.49075C23.4888 1.48724 23.5008 1.48318 23.5185 1.49952C23.5362 1.51596 23.5333 1.52843 23.5307 1.53952Z" fill="#DADADA"/>
</svg>
