<svg width="25" height="22" viewBox="0 0 25 22" fill="none" xmlns="http://www.w3.org/2000/svg">
<path d="M24.8895 3.76575C24.7417 3.52253 24.4713 3.38467 24.1897 3.40937L22.9432 3.51922L24.1347 1.08937C24.2766 0.799972 24.2205 0.451298 23.9953 0.222257C23.7701 -0.00678337 23.4257 -0.0651673 23.139 0.0768903L19.9853 1.63928C18.0369 0.59874 15.6027 0.907601 13.9277 2.45112C12.5297 3.73932 11.7949 5.72037 11.9319 7.69594C8.27813 7.32548 5.18535 5.20988 3.35654 1.79151C3.2352 1.56474 3.00771 1.41641 2.75346 1.39818C2.49873 1.38025 2.25332 1.49445 2.10166 1.70176C0.967375 3.25185 0.887785 5.37718 1.777 7.12569C1.53188 7.06305 1.27104 6.97829 0.98178 6.88054C0.733976 6.79672 0.460783 6.85041 0.261905 7.02191C0.0630278 7.1934 -0.0325778 7.45771 0.00995159 7.71856C0.361808 9.8765 1.60576 11.535 3.5708 12.5166C3.31494 12.6068 3.05385 12.68 2.78838 12.7359C2.52461 12.7915 2.31103 12.9867 2.22973 13.2466C2.14843 13.5064 2.21201 13.7904 2.39609 13.9894C3.81118 15.5196 5.85532 16.2727 7.30728 16.634C5.6564 17.9418 3.87431 18.1606 1.28476 18.0707C0.985002 18.0615 0.70883 18.2323 0.582804 18.5072C0.456827 18.7821 0.505705 19.1066 0.707023 19.3311C1.78652 20.5348 5.71944 21.8921 9.85382 21.9938C10.0173 21.9978 10.1841 22 10.3545 22C13.2573 22 17.0938 21.3705 19.8476 18.5848C21.9319 16.4763 23.2356 14.0491 23.7224 11.3706C24.1156 9.2073 23.8671 7.47495 23.7477 6.64236C23.7389 6.58116 23.7295 6.51621 23.7219 6.45941L24.888 4.55823C25.0367 4.3157 25.0373 4.00896 24.8895 3.76575ZM22.2721 6.85891C22.4933 8.40119 23.1664 13.0944 18.7933 17.5182C16.2513 20.0896 12.5487 20.5514 9.89005 20.486C7.62144 20.4302 5.59224 19.9913 4.12153 19.4907C4.71865 19.4166 5.25078 19.3023 5.75308 19.1444C7.1378 18.709 8.30762 17.9256 9.43448 16.6789C9.62232 16.4711 9.68004 16.1748 9.58429 15.9105C9.48853 15.6461 9.25514 15.4577 8.97906 15.422C8.26817 15.3298 6.13213 14.9661 4.4501 13.7924C4.93481 13.5918 5.4023 13.3409 5.84868 13.0413C6.09356 12.8769 6.22022 12.5825 6.17198 12.2892C6.12378 11.996 5.90987 11.7587 5.62559 11.6833C4.24888 11.3182 2.58735 10.5012 1.82119 8.6774C2.31044 8.76414 2.84243 8.78513 3.40981 8.65646C3.6728 8.59689 3.88354 8.39833 3.96089 8.13713C4.03828 7.87593 3.97031 7.59281 3.7831 7.39671C2.82978 6.39786 2.47329 4.95842 2.77915 3.72667C3.78081 5.20756 5.04981 6.45388 6.50372 7.37532C8.36363 8.55412 10.5344 9.20557 12.7816 9.25907C13.0102 9.26396 13.2296 9.163 13.3752 8.9838C13.5207 8.80464 13.5766 8.5677 13.5269 8.34132C13.1403 6.58314 13.6917 4.70883 14.9317 3.56619C16.2178 2.38098 18.1187 2.20119 19.5541 3.12925C19.7733 3.27096 20.0498 3.28682 20.2835 3.17104L21.8236 2.408L21.0175 4.05189C20.8977 4.29614 20.9176 4.58678 21.0695 4.81196C21.2213 5.03715 21.4811 5.16217 21.75 5.13831L22.8361 5.04263L22.3358 5.85838C22.1679 6.13217 22.2027 6.37509 22.2721 6.85891Z" fill="#DADADA"/>
</svg>
