<svg width="27" height="27" viewBox="0 0 27 27" fill="none" xmlns="http://www.w3.org/2000/svg">
<path d="M14.0498 15.3877H12.582L12.4678 6.20312H14.1729L14.0498 15.3877ZM12.4062 18.1826C12.4062 17.9189 12.4854 17.6992 12.6436 17.5234C12.8076 17.3418 13.0479 17.251 13.3643 17.251C13.6807 17.251 13.9209 17.3418 14.085 17.5234C14.249 17.6992 14.3311 17.9189 14.3311 18.1826C14.3311 18.4463 14.249 18.666 14.085 18.8418C13.9209 19.0117 13.6807 19.0967 13.3643 19.0967C13.0479 19.0967 12.8076 19.0117 12.6436 18.8418C12.4854 18.666 12.4062 18.4463 12.4062 18.1826Z" fill="#C05656"/>
<path fill-rule="evenodd" clip-rule="evenodd" d="M13.5 27C20.9558 27 27 20.9558 27 13.5C27 6.04416 20.9558 0 13.5 0C6.04416 0 0 6.04416 0 13.5C0 20.9558 6.04416 27 13.5 27ZM13.5 26C20.4036 26 26 20.4036 26 13.5C26 6.59644 20.4036 1 13.5 1C6.59644 1 1 6.59644 1 13.5C1 20.4036 6.59644 26 13.5 26Z" fill="#C05656"/>
</svg>
