<svg width="22" height="18" viewBox="0 0 22 18" fill="none" xmlns="http://www.w3.org/2000/svg">
<path d="M19.3111 0H2.68894C1.97602 0.000860266 1.29254 0.280703 0.788453 0.778142C0.28436 1.27558 0.000809468 1.95 0 2.65345V15.3465C0.000809468 16.05 0.28436 16.7244 0.788453 17.2219C1.29254 17.7193 1.97602 17.9991 2.68894 18H19.3111C20.024 17.9991 20.7075 17.7193 21.2115 17.2219C21.7156 16.7244 21.9992 16.05 22 15.3465V2.65345C21.9992 1.95 21.7156 1.27558 21.2115 0.778142C20.7075 0.280703 20.024 0.000860266 19.3111 0ZM19.3111 17.1874H2.68894C2.19435 17.1868 1.7202 16.9926 1.3705 16.6475C1.0208 16.3024 0.82409 15.8346 0.823529 15.3465V2.65345C0.82409 2.16543 1.0208 1.69756 1.3705 1.35246C1.7202 1.00735 2.19435 0.813203 2.68894 0.812589H19.3111C19.8056 0.813203 20.2798 1.00735 20.6295 1.35246C20.9792 1.69756 21.1759 2.16543 21.1765 2.65345V6.2769H16.4621C15.8614 6.27758 15.2854 6.5133 14.8606 6.93238C14.4357 7.35146 14.1966 7.91969 14.1958 8.51245V9.48755C14.1965 10.0804 14.4354 10.6488 14.8603 11.0681C15.2852 11.4873 15.8613 11.7231 16.4621 11.7238H21.1765V15.3465C21.1759 15.8346 20.9792 16.3024 20.6295 16.6475C20.2798 16.9926 19.8056 17.1868 19.3111 17.1874ZM21.1765 10.9105H16.4621C16.0797 10.9101 15.7131 10.76 15.4426 10.4933C15.1722 10.2266 15.0199 9.86488 15.0193 9.48755V8.51245C15.0197 8.135 15.1719 7.77314 15.4424 7.50625C15.7129 7.23935 16.0796 7.08922 16.4621 7.08879H21.1765V10.9105Z" fill="#DADADA"/>
<path d="M15.9106 9C15.9106 9.23483 15.9812 9.46438 16.1134 9.65963C16.2456 9.85489 16.4335 10.0071 16.6534 10.0969C16.8733 10.1868 17.1152 10.2103 17.3487 10.1645C17.5821 10.1187 17.7965 10.0056 17.9648 9.83955C18.133 9.67351 18.2476 9.46195 18.2941 9.23163C18.3405 9.00132 18.3167 8.76259 18.2256 8.54564C18.1345 8.32869 17.9803 8.14325 17.7824 8.01279C17.5845 7.88233 17.3519 7.81269 17.1139 7.81269C16.7949 7.81306 16.489 7.93827 16.2635 8.16086C16.0379 8.38344 15.911 8.68522 15.9106 9ZM17.1139 8.62528C17.189 8.62528 17.2624 8.64726 17.3249 8.68843C17.3873 8.72961 17.436 8.78813 17.4648 8.8566C17.4935 8.92507 17.501 9.00042 17.4864 9.0731C17.4717 9.14579 17.4355 9.21256 17.3824 9.26497C17.3293 9.31737 17.2617 9.35306 17.188 9.36752C17.1143 9.38198 17.038 9.37456 16.9686 9.3462C16.8992 9.31784 16.8399 9.26981 16.7981 9.20818C16.7564 9.14656 16.7341 9.07411 16.7341 9C16.7343 8.90066 16.7743 8.80542 16.8455 8.73517C16.9167 8.66492 17.0132 8.62541 17.1139 8.62528Z" fill="#DADADA"/>
</svg>
