<svg width="150" height="43" viewBox="0 0 150 43" fill="none" xmlns="http://www.w3.org/2000/svg">
<path d="M57.54 10.8V27.828C57.54 31.644 54.444 34.776 50.592 34.776C46.776 34.776 43.68 31.644 43.68 27.828V10.8H41.34V27.612C41.34 32.724 45.48 36.864 50.592 36.864C55.704 36.864 59.844 32.724 59.844 27.612V10.8H57.54ZM61.7981 36H64.3181L72.5981 15.84L80.8781 36H83.3981L72.5981 9.936L61.7981 36ZM94.0223 21.924C90.8183 20.988 87.5423 20.052 87.5423 17.496C87.5423 14.328 90.6383 12.24 93.9503 12.24C96.9023 12.24 98.7743 13.608 100.178 15.768L102.302 14.76C100.97 12.168 97.9823 9.936 93.9503 9.936C88.9463 9.936 85.1303 13.32 85.1303 17.712C85.1303 21.204 89.3783 23.148 93.5543 24.3C96.7223 25.164 100.43 26.604 100.43 29.376C100.43 32.868 96.7223 34.56 93.3383 34.56C90.3863 34.56 87.9383 32.544 86.5343 30.132L84.3023 31.212C86.0663 34.416 89.3783 36.864 93.3383 36.864C98.6303 36.864 102.77 33.948 102.77 29.376C102.77 24.84 98.3063 23.184 94.0223 21.924ZM104.759 36H107.279L115.559 15.84L123.839 36H126.359L115.559 9.936L104.759 36ZM129.406 10.8V36H131.71V25.092H139.882L145.354 36H147.874L142.222 24.696C145.03 23.724 147.046 21.06 147.046 17.928C147.046 14.004 143.842 10.8 139.882 10.8H129.406ZM131.71 12.888H139.666C142.474 12.888 144.706 15.156 144.706 17.928C144.706 20.736 142.474 22.968 139.666 22.968H131.71V12.888Z" fill="#EBEBEB"/>
<path fill-rule="evenodd" clip-rule="evenodd" d="M36.1818 38.2727L35.4545 39L14.7001 18.8293L15.9047 17.6247L36.1818 38.2727ZM13.191 14.8613L11.6537 13.2959L10.349 14.6006L11.9224 16.1298L13.191 14.8613ZM7.58913 9.15696L6.1887 10.5574L0 4.54278L1.54278 3L7.58913 9.15696Z" fill="#EBEBEB"/>
<path fill-rule="evenodd" clip-rule="evenodd" d="M26.1685 33.5209C23.4052 35.232 20.1118 35.8858 16.8985 35.3545C13.5871 34.8071 10.6003 33.0407 8.52518 30.4027C6.4501 27.7647 5.43686 24.4459 5.68466 21.0987C5.93247 17.7515 7.42338 14.6181 9.86431 12.3145C12.3052 10.0108 15.5196 8.70355 18.8755 8.64968C22.2314 8.59581 25.4861 9.79923 27.9997 12.0234C30.5133 14.2475 32.104 17.3314 32.4591 20.6689C32.7762 23.6487 32.0878 26.638 30.5209 29.1685L31.9766 30.6242C33.9572 27.6336 34.8403 24.0388 34.4591 20.4561C34.0508 16.6193 32.2221 13.074 29.3325 10.5171C26.4428 7.96024 22.7012 6.57678 18.8432 6.63871C14.9853 6.70064 11.29 8.20348 8.48388 10.8518C5.67777 13.5001 3.9638 17.1023 3.67892 20.9502C3.39405 24.7982 4.55887 28.6135 6.9444 31.6462C9.32993 34.6788 12.7636 36.7094 16.5704 37.3388C20.3772 37.9682 24.2817 37.1508 27.5164 35.0473L27.1844 34.5368L26.1685 33.5209Z" fill="#EBEBEB"/>
<path fill-rule="evenodd" clip-rule="evenodd" d="M22.201 28.1389C20.9078 28.8038 19.429 29.0395 17.9823 28.8003C16.3071 28.5233 14.7962 27.6298 13.7464 26.2952C12.6967 24.9607 12.1841 23.2818 12.3095 21.5885C12.4348 19.8953 13.189 18.3101 14.4239 17.1447C15.6587 15.9794 17.2848 15.318 18.9825 15.2908C20.6802 15.2635 22.3266 15.8723 23.5982 16.9975C24.8698 18.1226 25.6745 19.6827 25.8542 21.3711C25.993 22.6755 25.7509 23.9835 25.1696 25.1416L25.9222 25.8942C26.7031 24.4919 27.0374 22.8753 26.8659 21.2635C26.6594 19.3225 25.7343 17.529 24.2725 16.2355C22.8106 14.942 20.9178 14.2421 18.9661 14.2735C17.0145 14.3048 15.1451 15.0651 13.7255 16.4048C12.306 17.7445 11.4389 19.5668 11.2948 21.5134C11.1507 23.46 11.7399 25.3901 12.9467 26.9243C14.1535 28.4585 15.8906 29.4857 17.8164 29.8041C19.5869 30.0968 21.3992 29.7709 22.9516 28.8895L22.201 28.1389Z" fill="#EBEBEB"/>
</svg>
