<svg width="32" height="32" viewBox="0 0 32 32" fill="none" xmlns="http://www.w3.org/2000/svg">
<circle cx="16" cy="16" r="15.5" fill="#0F122D" stroke="#B079F7"/>
<path fill-rule="evenodd" clip-rule="evenodd" d="M25.3271 24.8453L24.9417 25.2307L13.9436 14.542L14.582 13.9037L25.3271 24.8453ZM13.1439 12.4393L12.3293 11.6097L11.6379 12.3011L12.4717 13.1115L13.1439 12.4393ZM10.1754 9.41646L9.43328 10.1586L6.15381 6.97135L6.97135 6.15381L10.1754 9.41646Z" fill="url(#paint0_linear_422_91)"/>
<path fill-rule="evenodd" clip-rule="evenodd" d="M20.0207 22.3271C18.5564 23.2339 16.8112 23.5803 15.1084 23.2988C13.3537 23.0087 11.7709 22.0727 10.6713 20.6747C9.57166 19.2768 9.03473 17.5182 9.16605 15.7444C9.29736 13.9707 10.0874 12.3103 11.3809 11.0895C12.6744 9.86879 14.3777 9.17606 16.1561 9.14751C17.9344 9.11896 19.6591 9.75667 20.9911 10.9353C22.3231 12.1139 23.1661 13.7481 23.3542 15.5167C23.5222 17.0957 23.1575 18.6798 22.3271 20.0208L23.0985 20.7922C24.1481 19.2074 24.616 17.3024 24.414 15.4039C24.1977 13.3707 23.2286 11.492 21.6974 10.1371C20.1661 8.78217 18.1834 8.04905 16.139 8.08187C14.0946 8.11468 12.1364 8.91106 10.6494 10.3144C9.16239 11.7178 8.25414 13.6267 8.10318 15.6657C7.95222 17.7048 8.56947 19.7266 9.8336 21.3337C11.0977 22.9407 12.9173 24.0168 14.9346 24.3503C16.9518 24.6838 19.0209 24.2507 20.735 23.136L20.5592 22.8657L20.0207 22.3271Z" fill="#E988EB"/>
<path fill-rule="evenodd" clip-rule="evenodd" d="M17.9182 19.4754C17.2328 19.8278 16.4492 19.9527 15.6826 19.8259C14.7949 19.6792 13.9942 19.2057 13.4379 18.4985C12.8816 17.7913 12.61 16.9016 12.6764 16.0043C12.7429 15.107 13.1425 14.2671 13.7969 13.6495C14.4512 13.0319 15.3129 12.6815 16.2126 12.6671C17.1122 12.6526 17.9847 12.9752 18.6585 13.5715C19.3324 14.1677 19.7588 14.9944 19.854 15.8891C19.9275 16.5803 19.7993 17.2734 19.4913 17.8871L19.8901 18.2859C20.3038 17.5428 20.481 16.6862 20.3901 15.8321C20.2807 14.8035 19.7905 13.8531 19.0158 13.1677C18.2412 12.4822 17.2381 12.1114 16.2039 12.128C15.1697 12.1446 14.1791 12.5474 13.4268 13.2574C12.6746 13.9673 12.2151 14.933 12.1388 15.9645C12.0624 16.9961 12.3746 18.0188 13.0141 18.8318C13.6536 19.6448 14.5741 20.1892 15.5946 20.3579C16.5329 20.513 17.4933 20.3403 18.3159 19.8732L17.9182 19.4754Z" fill="#E988EB"/>
<defs>
<linearGradient id="paint0_linear_422_91" x1="15.7404" y1="6.15381" x2="15.7404" y2="25.2307" gradientUnits="userSpaceOnUse">
<stop stop-color="#E988EB"/>
<stop offset="1" stop-color="#92EADA"/>
</linearGradient>
</defs>
</svg>
