<svg width="20" height="20" viewBox="0 0 20 20" fill="none" xmlns="http://www.w3.org/2000/svg">
<circle class="circleBg" cx="10" cy="10" r="9.5" fill="#0F122D" stroke="#B079F7"/>
<path fill-rule="evenodd" clip-rule="evenodd" d="M15.8292 15.5283L15.5883 15.7692L8.71462 9.08881L9.1136 8.68984L15.8292 15.5283ZM8.21483 7.77462L7.70579 7.25626L7.27368 7.68839L7.79469 8.19475L8.21483 7.77462ZM6.35963 5.88545L5.89582 6.34928L3.84595 4.35704L4.35691 3.84607L6.35963 5.88545Z" fill="url(#paint0_linear_326_304)"/>
<path fill-rule="evenodd" clip-rule="evenodd" d="M12.5131 13.9544C11.5979 14.5212 10.5071 14.7377 9.44278 14.5618C8.34606 14.3805 7.35684 13.7954 6.66958 12.9217C5.98232 12.0481 5.64674 10.9489 5.72881 9.8403C5.81088 8.73173 6.30467 7.69395 7.1131 6.93099C7.92152 6.16803 8.98611 5.73507 10.0976 5.71722C11.209 5.69938 12.287 6.09795 13.1195 6.83458C13.952 7.5712 14.4788 8.59259 14.5964 9.69796C14.7014 10.6848 14.4735 11.6748 13.9546 12.5129L14.4367 12.995C15.0926 12.0045 15.385 10.814 15.2588 9.62748C15.1236 8.35674 14.5179 7.18254 13.5609 6.33571C12.6038 5.48888 11.3646 5.03069 10.0869 5.0512C8.80914 5.07171 7.58528 5.56944 6.6559 6.44655C5.72653 7.32366 5.15887 8.5167 5.06452 9.79112C4.97017 11.0655 5.35595 12.3292 6.14603 13.3336C6.93611 14.338 8.07333 15.0105 9.33413 15.219C10.5949 15.4274 11.8881 15.1567 12.9594 14.46L12.8491 14.2904L12.5131 13.9544Z" fill="#E988EB"/>
<path fill-rule="evenodd" clip-rule="evenodd" d="M11.1989 12.1722C10.7706 12.3924 10.2807 12.4705 9.80155 12.3913C9.24674 12.2995 8.74631 12.0036 8.39863 11.5616C8.05096 11.1196 7.8812 10.5636 7.92272 10.0028C7.96423 9.44196 8.21403 8.91697 8.623 8.531C9.03197 8.14503 9.57053 7.926 10.1328 7.91698C10.6951 7.90795 11.2404 8.10958 11.6615 8.48222C12.0827 8.85487 12.3492 9.37157 12.4087 9.93076C12.4546 10.3627 12.3745 10.7958 12.182 11.1794L12.4313 11.4286C12.6899 10.9642 12.8006 10.4289 12.7438 9.8951C12.6754 9.25226 12.369 8.65825 11.8848 8.22986C11.4007 7.80146 10.7738 7.56967 10.1274 7.58005C9.481 7.59042 8.86187 7.84222 8.39171 8.28593C7.92156 8.72965 7.63439 9.33318 7.58666 9.97789C7.53893 10.6226 7.73409 11.2618 8.13378 11.77C8.53347 12.2781 9.10877 12.6183 9.74658 12.7237C10.333 12.8207 10.9333 12.7127 11.4475 12.4207L11.1989 12.1722Z" fill="#E988EB"/>
<defs>
<linearGradient id="paint0_linear_326_304" x1="9.83755" y1="3.84607" x2="9.83755" y2="15.7692" gradientUnits="userSpaceOnUse">
<stop stop-color="#E988EB"/>
<stop offset="1" stop-color="#92EADA"/>
</linearGradient>
</defs>
</svg>
